<svg width="206" height="133" viewBox="0 0 206 133" fill="none" xmlns="http://www.w3.org/2000/svg">
<path d="M200.649 86.5013H196.394V65.4376C196.394 61.4428 195.024 57.5525 192.432 54.187C192.309 54.028 192.175 53.875 192.029 53.7304L164.626 26.5244C163.609 25.5154 162.105 24.932 160.521 24.932H148.203C145.248 24.932 142.852 26.9205 142.852 29.3736C142.852 31.8267 145.248 33.8153 148.203 33.8153H158.02L183.583 59.1937C184.964 61.0757 185.693 63.2286 185.693 65.4372V86.501H134.291V4.4958C134.291 2.04268 131.895 0.0541382 128.94 0.0541382H43.9552C25.0149 0.0541382 9.60636 12.8451 9.60636 28.5671V66.0698C9.60636 68.5229 12.0023 70.5115 14.9571 70.5115H94.7069C97.6617 70.5115 100.058 68.5229 100.058 66.0698C100.058 63.6167 97.6617 61.6282 94.7069 61.6282H20.3075V28.5671C20.3075 17.743 30.9157 8.93712 43.9552 8.93712H123.59V86.501H5.35077C2.39596 86.5013 0 88.4899 0 90.9426V109.183C0 111.636 2.39596 113.625 5.35077 113.625H16.8208C17.9087 124.429 28.842 132.946 42.1326 132.946C55.4233 132.946 66.3565 124.428 67.4445 113.625H138.02C139.108 124.429 150.041 132.946 163.332 132.946C176.623 132.946 187.556 124.428 188.644 113.625H200.65C203.604 113.625 206 111.636 206 109.183V90.9426C206 88.4899 203.604 86.5013 200.649 86.5013ZM147.401 95.3843C143.798 97.7833 140.996 100.998 139.399 104.742H66.0656C64.4683 100.998 61.6664 97.7833 58.0638 95.3843H147.401ZM10.7011 95.3843H26.2018C22.5992 97.7833 19.7965 100.998 18.1992 104.742H10.7011V95.3843ZM42.1326 124.063C34.023 124.063 27.4258 118.586 27.4258 111.854C27.4258 111.104 27.5119 110.371 27.6688 109.657C27.6901 109.56 27.7094 109.463 27.7336 109.367C28.9696 104.43 33.8093 100.575 39.8586 99.7926C39.8799 99.7899 39.9012 99.7869 39.923 99.7842C40.1221 99.7595 40.3225 99.7388 40.5245 99.7207C40.5752 99.7164 40.6263 99.7104 40.6774 99.7064C40.8556 99.6917 41.0346 99.6817 41.2145 99.6723C41.2809 99.6686 41.3465 99.664 41.4136 99.6613C41.6233 99.6529 41.8349 99.6489 42.0473 99.6479C42.0763 99.6479 42.1045 99.6463 42.1334 99.6463C42.1624 99.6463 42.1906 99.6476 42.2195 99.6479C42.4316 99.6489 42.6432 99.6529 42.8532 99.6613C42.92 99.664 42.986 99.669 43.0524 99.6723C43.2322 99.6817 43.4113 99.692 43.5895 99.7064C43.641 99.7104 43.6913 99.7161 43.7424 99.7207C43.944 99.7391 44.1448 99.7595 44.3439 99.7842C44.3652 99.7869 44.3866 99.7899 44.4083 99.7926C50.4539 100.575 55.2917 104.425 56.5313 109.359C56.5619 109.482 56.588 109.607 56.6142 109.731C56.7606 110.421 56.8415 111.13 56.8415 111.854C56.8395 118.586 50.2419 124.063 42.1326 124.063ZM163.332 124.063C155.223 124.063 148.625 118.586 148.625 111.854C148.625 111.128 148.706 110.418 148.854 109.726C148.879 109.603 148.905 109.48 148.935 109.359C150.174 104.425 155.012 100.574 161.058 99.7919C161.08 99.7892 161.101 99.7862 161.123 99.7835C161.322 99.7588 161.522 99.7381 161.723 99.7201C161.774 99.7157 161.825 99.7097 161.876 99.7057C162.054 99.691 162.233 99.681 162.413 99.6717C162.48 99.668 162.545 99.6633 162.612 99.6606C162.823 99.6523 163.034 99.6483 163.246 99.6473C163.275 99.6473 163.303 99.6456 163.332 99.6456C163.361 99.6456 163.389 99.6469 163.418 99.6473C163.63 99.6483 163.842 99.6523 164.052 99.6606C164.119 99.6633 164.185 99.6683 164.251 99.6717C164.431 99.681 164.61 99.6914 164.788 99.7057C164.84 99.7097 164.89 99.7154 164.941 99.7201C165.143 99.7384 165.344 99.7588 165.543 99.7835C165.564 99.7862 165.585 99.7892 165.607 99.7919C171.653 100.574 176.49 104.425 177.73 109.358C177.76 109.481 177.786 109.606 177.813 109.73C177.959 110.421 178.04 111.129 178.04 111.854C178.039 118.586 171.442 124.063 163.332 124.063ZM195.299 104.742H187.265C185.668 100.998 182.866 97.7833 179.263 95.3843H195.299V104.742Z" fill="#FFC61B"/>
<path d="M148.202 76.73H172.316C175.27 76.73 177.666 74.7414 177.666 72.2883V65.4376C177.666 65.1862 177.645 64.9323 177.602 64.6835C177.462 63.8646 177.049 63.0937 176.409 62.4592L155.872 42.0701C154.855 41.0611 153.352 40.4777 151.767 40.4777H148.202C145.247 40.4777 142.851 42.4662 142.851 44.9193V72.2883C142.852 74.7414 145.248 76.73 148.202 76.73ZM153.553 53.6163L166.965 66.9316V67.847H153.553V53.6163Z" fill="#FFC61B"/>
</svg>
